<svg width="21" height="31" viewBox="0 0 21 31" fill="none" xmlns="http://www.w3.org/2000/svg">
<path d="M21 6.57695C21 4.84631 18.9252 3.43826 16.3748 3.43826C14.1678 3.43826 12.3181 4.49292 11.8597 5.89833H5.86273L1.89966 0.381397C1.65767 0.0445652 1.05939 -0.0954872 0.562612 0.0687894C0.0662289 0.232998 -0.140064 0.639177 0.101927 0.976076L3.6378 5.8984H1.11809C0.741105 5.8984 0.396217 6.04225 0.226023 6.27038C0.0557288 6.49858 0.0889277 6.7723 0.31192 6.97851C1.97496 8.51576 1.81317 9.85617 0.8953 11.9422C0.0111304 13.9518 -0.55355 15.6402 0.850202 17.5312C2.09966 19.4097 4.71447 20.6886 7.68546 20.9258C7.69466 23.5086 7.69466 26.1339 7.68556 28.7497H3.7915C3.23932 28.7497 2.79153 29.0536 2.79153 29.4282C2.79153 29.803 3.23932 30.1068 3.7915 30.1068H8.68033C8.68143 30.1068 8.68233 30.1068 8.68323 30.1068H13.5842C14.1363 30.1068 14.5841 29.803 14.5841 29.4282C14.5841 29.0536 14.1363 28.7497 13.5842 28.7497H9.68559C9.69469 26.1341 9.69469 23.509 9.68549 20.9262C12.6575 20.6901 15.2739 19.4113 16.5243 17.5328C17.9296 15.6412 17.3647 13.9523 16.4804 11.9421C16.1046 11.0885 15.8559 10.3599 15.8067 9.69142C15.994 9.70696 16.1834 9.71557 16.375 9.71557C18.9252 9.71551 21 8.30759 21 6.57695ZM16.3749 4.79535C17.8225 4.79535 19.0002 5.59455 19.0002 6.57695C19.0002 7.55928 17.8225 8.35841 16.3749 8.35841C16.2577 8.35841 16.1422 8.35264 16.028 8.34253C16.2268 7.88858 16.5616 7.44237 17.0634 6.97838C17.2864 6.77217 17.3197 6.49844 17.1493 6.27024C16.979 6.04212 16.6343 5.89833 16.2573 5.89833H13.9477C14.3419 5.25168 15.2812 4.79535 16.3749 4.79535ZM12.7476 7.25543C12.7483 7.25543 12.7489 7.2555 12.7496 7.2555C12.7503 7.2555 12.7509 7.25543 12.7516 7.25543H14.5013C13.3495 8.94373 13.7891 10.5246 14.4706 12.1152C13.9927 11.8309 13.3353 11.4947 12.192 11.4947C11.2673 11.4947 10.6608 11.7148 10.2096 11.9494L6.83769 7.25543H12.7476V7.25543ZM4.61267 7.25543L8.40804 12.5388C8.10455 12.4981 7.91626 12.3846 7.60867 12.198C7.11928 11.9012 6.44911 11.4947 5.19245 11.4947C4.03959 11.4947 3.38081 11.8366 2.90193 12.1223C3.58511 10.5291 4.02779 8.94603 2.87433 7.25536H4.61267V7.25543ZM14.7298 16.9332C14.7225 16.943 14.7155 16.9528 14.709 16.9627C13.647 18.5703 11.2834 19.6091 8.68763 19.6091C6.09102 19.6091 3.7273 18.5698 2.66534 16.9614C2.65884 16.9515 2.65184 16.9416 2.64464 16.9319C1.89006 15.9221 1.87467 14.9817 2.20515 13.888C3.13972 13.796 3.6908 13.4633 4.10879 13.2098C4.50188 12.9715 4.69907 12.8518 5.19235 12.8518C5.68553 12.8518 5.88273 12.9715 6.27581 13.2098C6.7652 13.5067 7.43537 13.9132 8.69213 13.9132C9.4354 13.9132 9.97248 13.7707 10.3894 13.5931C10.3908 13.5926 10.392 13.592 10.3934 13.5914C10.6796 13.4692 10.9096 13.3305 11.1086 13.2098C11.5016 12.9715 11.6988 12.8518 12.1919 12.8518C12.6853 12.8518 12.8826 12.9715 13.2757 13.2099C13.6923 13.4625 14.2412 13.7937 15.1699 13.887C15.501 14.9816 15.4856 15.9227 14.7298 16.9332Z" fill="#22BBBB"/>
</svg>
