<svg width="33" height="25" viewBox="0 0 33 25" fill="none" xmlns="http://www.w3.org/2000/svg">
<path d="M0 0.687567L0 1.09707C0 1.25064 0.124497 1.37514 0.278071 1.37514V1.37514C0.536041 1.37514 0.569543 1.38339 0.693503 1.45489C0.767208 1.4989 0.861015 1.57866 0.901218 1.63091C0.968223 1.72167 0.971574 1.75742 0.971574 2.5L0.971574 3.03957C0.971574 3.18756 0.90667 3.32812 0.79401 3.42409V3.42409V3.42409C0.679396 3.52173 0.533753 3.57536 0.383187 3.57536H0.308223V3.57536C0.137996 3.57536 0 3.71335 0 3.88358L0 12.4862L0 21.1057C0 21.2666 0.130496 21.3971 0.291472 21.3971V21.3971C0.616447 21.3971 0.710254 21.4301 0.881117 21.6117V21.6117C0.939225 21.6735 0.971574 21.7552 0.971574 21.84L0.971574 22.478C0.971574 23.2151 0.968223 23.2508 0.901218 23.3416C0.861015 23.3938 0.767208 23.4736 0.693503 23.5176C0.569543 23.5891 0.536041 23.5974 0.278071 23.5974V23.5974C0.124497 23.5974 0 23.7219 0 23.8754L0 24.2987V24.2987C0 24.686 0.313992 25 0.70132 25L16.5 25L32.2849 25C32.6799 25 33 24.6799 33 24.2849V24.2849V23.8345C33 23.6884 32.8815 23.5699 32.7353 23.5699V23.5699C32.4874 23.5699 32.4606 23.5644 32.3266 23.4818C32.0653 23.3168 32.0619 23.2976 32.0619 22.4697V21.8807C32.0619 21.7883 32.0926 21.6985 32.149 21.6254V21.6254C32.1993 21.5649 32.2998 21.4824 32.3735 21.4411C32.4908 21.3806 32.5477 21.3696 32.7554 21.3696V21.3696C32.8905 21.3696 33 21.2601 33 21.1251L33 12.4725V3.80988C33 3.68035 32.895 3.57536 32.7655 3.57536V3.57536C32.6248 3.57536 32.4908 3.55886 32.4372 3.53685C32.3333 3.49285 32.1557 3.34158 32.0988 3.25357C32.0753 3.21507 32.0619 2.94554 32.0619 2.45324V1.86654C32.0619 1.7678 32.0976 1.67239 32.1624 1.59791V1.59791C32.3199 1.41914 32.4372 1.37514 32.742 1.37514V1.37514C32.8845 1.37514 33 1.25964 33 1.11717V0.687567V0.687567C33 0.307833 32.6922 -1.35795e-06 32.3124 -1.35795e-06L16.5 -1.35795e-06L0.687567 -1.35795e-06C0.307834 -1.35795e-06 0 0.307833 0 0.687567V0.687567ZM4.72386 1.44939C4.79421 1.4934 4.89137 1.57591 4.93827 1.63641V1.63641C4.99462 1.7058 5.02538 1.79246 5.02538 1.88185V2.49175V3.08395C5.02538 3.18269 4.98968 3.2781 4.92487 3.35258V3.35258C4.74061 3.56161 4.68365 3.57536 4.03371 3.57536C3.48426 3.57536 3.46081 3.57261 3.3536 3.50935C3.2933 3.4736 3.20619 3.40209 3.16264 3.35258V3.35258C3.11084 3.29411 3.08223 3.21869 3.08223 3.14057L3.08223 2.47525V1.84307C3.08223 1.74596 3.1208 1.65284 3.18944 1.58416V1.58416C3.38711 1.38614 3.43401 1.37514 4.04711 1.37514C4.5932 1.37514 4.59655 1.37514 4.72386 1.44939ZM8.96863 1.44389C9.03899 1.47965 9.13614 1.56216 9.1864 1.62541V1.62541C9.24708 1.70014 9.2802 1.79347 9.2802 1.88973L9.2802 2.489V3.08395C9.2802 3.18269 9.24451 3.2781 9.17969 3.35258V3.35258C8.99543 3.56161 8.93848 3.57536 8.28853 3.57536C7.73909 3.57536 7.71563 3.57261 7.60843 3.50935C7.54812 3.4736 7.46102 3.40209 7.41746 3.35258V3.35258C7.36566 3.29411 7.33706 3.21869 7.33706 3.14057V2.47525V1.84307C7.33706 1.74596 7.37562 1.65284 7.44426 1.58416V1.58416C7.64193 1.38614 7.68883 1.37514 8.30193 1.37514C8.82792 1.37514 8.85137 1.37789 8.96863 1.44389ZM13.0291 1.41639C13.0827 1.43839 13.1799 1.50715 13.2469 1.57315V1.57315C13.3239 1.64694 13.3675 1.74899 13.3675 1.85567L13.3675 2.47525V3.14057C13.3675 3.21869 13.3389 3.29411 13.2871 3.35258V3.35258C13.2436 3.40209 13.1564 3.4736 13.0961 3.50935C12.9889 3.57261 12.9655 3.57536 12.416 3.57536C11.7661 3.57536 11.7091 3.56161 11.5249 3.35258V3.35258C11.4601 3.2781 11.4244 3.18269 11.4244 3.08395V2.489L11.4244 1.88973C11.4244 1.79347 11.4575 1.70014 11.5182 1.62541V1.62541C11.5684 1.56216 11.6622 1.4824 11.7259 1.44389C11.8398 1.38064 11.8666 1.37789 12.3892 1.37514C12.808 1.37514 12.9588 1.38339 13.0291 1.41639ZM17.2103 1.45489C17.284 1.4989 17.3778 1.57866 17.418 1.63091C17.485 1.72167 17.4883 1.75743 17.4883 2.4725C17.4883 3.31133 17.4883 3.30858 17.2471 3.47635V3.47635C17.1555 3.54078 17.0463 3.57536 16.9343 3.57536H16.5033H16.1336C15.983 3.57536 15.8374 3.52173 15.7227 3.42409V3.42409V3.42409C15.6101 3.32812 15.5452 3.18756 15.5452 3.03957V2.49725C15.5452 1.61716 15.5452 1.61991 15.8165 1.45764V1.45764C15.9087 1.40362 16.0136 1.37514 16.1204 1.37514H16.5168H16.9203C17.0224 1.37514 17.1225 1.40269 17.2103 1.45489V1.45489ZM21.3646 1.45489C21.4383 1.4989 21.5321 1.57866 21.5723 1.63091C21.6393 1.72167 21.6426 1.75743 21.6426 2.4725C21.6426 3.31133 21.6426 3.30858 21.4014 3.47635V3.47635C21.3099 3.54078 21.2006 3.57536 21.0887 3.57536H20.6577H20.2879C20.1373 3.57536 19.9917 3.52173 19.8771 3.42409V3.42409V3.42409C19.7644 3.32812 19.6995 3.18756 19.6995 3.03957V2.5C19.6995 1.75742 19.7028 1.72167 19.7698 1.63091C19.8101 1.57866 19.9039 1.4989 19.9776 1.45489V1.45489C20.0653 1.40269 20.1655 1.37514 20.2675 1.37514H20.6711H21.0746C21.1767 1.37514 21.2769 1.40269 21.3646 1.45489V1.45489ZM25.4921 1.41639C25.5457 1.43839 25.6428 1.50715 25.7098 1.57315V1.57315C25.7869 1.64694 25.8305 1.74899 25.8305 1.85567V2.47525V3.14057C25.8305 3.21869 25.8019 3.29411 25.7501 3.35258V3.35258C25.7065 3.40209 25.6194 3.4736 25.5591 3.50935C25.4519 3.57261 25.4284 3.57536 24.879 3.57536C24.229 3.57536 24.1721 3.56161 23.9878 3.35258V3.35258C23.923 3.2781 23.8873 3.18269 23.8873 3.08395V2.4835V1.86172C23.8873 1.77651 23.9169 1.69395 23.9711 1.62816V1.62816C24.018 1.57316 24.1118 1.4934 24.1788 1.44939C24.2994 1.37514 24.3027 1.37514 24.8488 1.37514C25.2676 1.37514 25.4217 1.38614 25.4921 1.41639ZM29.5459 1.41639C29.5995 1.43839 29.6966 1.50715 29.7637 1.57315V1.57315C29.8407 1.64694 29.8843 1.74899 29.8843 1.85567V2.47525V3.14057C29.8843 3.21869 29.8557 3.29411 29.8039 3.35258V3.35258C29.7603 3.40209 29.6732 3.4736 29.6129 3.50935C29.5057 3.57261 29.4822 3.57536 28.9328 3.57536C28.2828 3.57536 28.2259 3.56161 28.0416 3.35258V3.35258C27.9768 3.2781 27.9411 3.18269 27.9411 3.08395V2.49175V1.88185C27.9411 1.79246 27.9719 1.7058 28.0282 1.63641V1.63641C28.0751 1.57591 28.1689 1.4934 28.2359 1.45214C28.3599 1.37789 28.3666 1.37789 28.906 1.37514C29.3248 1.37514 29.4755 1.38339 29.5459 1.41639ZM4.73056 21.4549C4.78416 21.4879 4.87462 21.5649 4.92822 21.6254V21.6254C4.99083 21.6963 5.02538 21.7876 5.02538 21.8822V22.4807V23.0863C5.02538 23.1787 4.99475 23.2685 4.93827 23.3416V23.3416C4.88802 23.4021 4.78751 23.4846 4.71381 23.5259C4.5798 23.5946 4.56305 23.5974 4.03371 23.5974H3.65026C3.54819 23.5974 3.44802 23.5698 3.3603 23.5176V23.5176C3.07553 23.3498 3.08223 23.3718 3.08223 22.4972C3.08223 21.7547 3.08558 21.7162 3.15259 21.6254C3.19279 21.5759 3.27655 21.5016 3.34355 21.4659C3.46081 21.3999 3.48426 21.3971 4.04711 21.3971C4.5865 21.3971 4.63675 21.4026 4.73056 21.4549ZM8.98538 21.4549C9.03899 21.4879 9.12944 21.5649 9.18305 21.6254V21.6254C9.24565 21.6963 9.2802 21.7876 9.2802 21.8822L9.2802 22.4807V23.0863C9.2802 23.1787 9.24957 23.2685 9.1931 23.3416V23.3416C9.14284 23.4021 9.04234 23.4846 8.96863 23.5259C8.83462 23.5946 8.81787 23.5974 8.28853 23.5974H7.90509C7.80302 23.5974 7.70284 23.5698 7.61513 23.5176V23.5176C7.33036 23.3498 7.33706 23.3718 7.33706 22.4972C7.33706 21.7547 7.34041 21.7162 7.40741 21.6254C7.44761 21.5759 7.53137 21.5016 7.59838 21.4659C7.71563 21.3999 7.73909 21.3971 8.30193 21.3971C8.84132 21.3971 8.89157 21.4026 8.98538 21.4549ZM13.1062 21.4659C13.1732 21.5016 13.257 21.5759 13.2972 21.6254C13.3642 21.7162 13.3675 21.7547 13.3675 22.4972C13.3675 23.3718 13.3742 23.3498 13.0894 23.5176V23.5176C13.0017 23.5698 12.9016 23.5974 12.7995 23.5974L12.416 23.5974C11.8867 23.5974 11.8699 23.5946 11.7359 23.5259C11.6622 23.4846 11.5617 23.4021 11.5115 23.3416V23.3416C11.455 23.2685 11.4244 23.1787 11.4244 23.0863V22.489C11.4244 21.6584 11.4244 21.6557 11.6857 21.4796V21.4796C11.7665 21.4258 11.8615 21.3971 11.9586 21.3971H12.3959C12.9655 21.3971 12.9856 21.3999 13.1062 21.4659ZM17.2471 21.4961C17.4883 21.6639 17.4883 21.6612 17.4883 22.5V23.1169C17.4883 23.2033 17.4574 23.2869 17.4012 23.3526V23.3526C17.3543 23.4103 17.2572 23.4873 17.1835 23.5259C17.0595 23.5946 17.0394 23.5974 16.5134 23.5974C15.897 23.5974 15.8266 23.5781 15.6423 23.3691V23.3691C15.5797 23.2982 15.5452 23.2069 15.5452 23.1123V22.4835L15.5452 21.8319C15.5452 21.7538 15.5738 21.6784 15.6256 21.6199V21.6199C15.6691 21.5704 15.7562 21.4989 15.8165 21.4631C15.9238 21.3999 15.9439 21.3971 16.5168 21.3971H16.9343C17.0463 21.3971 17.1555 21.4317 17.2471 21.4961V21.4961ZM21.4115 21.4989C21.6426 21.6722 21.6426 21.6667 21.6426 22.5C21.6426 23.2151 21.6393 23.2508 21.5723 23.3416C21.5321 23.3938 21.4383 23.4736 21.3646 23.5176V23.5176C21.2769 23.5698 21.1767 23.5974 21.0746 23.5974H20.6778C20.0513 23.5974 19.9809 23.5809 19.7966 23.3691V23.3691C19.734 23.2982 19.6995 23.2069 19.6995 23.1123V22.4917V21.8578C19.6995 21.7701 19.7317 21.6855 19.7899 21.6199V21.6199C19.9776 21.4054 20.0111 21.3971 20.6778 21.3971H21.1032C21.2142 21.3971 21.3223 21.4328 21.4115 21.4989V21.4989ZM25.5591 21.4631C25.6194 21.4989 25.7065 21.5704 25.7501 21.6199V21.6199C25.8019 21.6784 25.8305 21.7538 25.8305 21.8319V22.4807C25.8305 23.3553 25.8305 23.3526 25.5591 23.5149V23.5149C25.4669 23.5689 25.3621 23.5974 25.2553 23.5974H24.879C24.353 23.5974 24.3329 23.5946 24.2056 23.5259C24.1319 23.4873 24.0314 23.4076 23.9811 23.3498V23.3498C23.9207 23.2825 23.8873 23.1953 23.8873 23.1049V22.4972C23.8873 21.6612 23.8873 21.6639 24.1285 21.4961V21.4961C24.2201 21.4317 24.3293 21.3971 24.4413 21.3971H24.8589C25.4318 21.3971 25.4519 21.3999 25.5591 21.4631ZM29.6229 21.4659C29.6899 21.5016 29.7737 21.5759 29.8139 21.6254C29.8809 21.7162 29.8843 21.7547 29.8843 22.5028V23.1168C29.8843 23.2235 29.8407 23.3256 29.7637 23.3993V23.3993C29.5693 23.5864 29.5224 23.5974 28.9194 23.5974C28.4035 23.5974 28.3867 23.5946 28.2527 23.5259C28.179 23.4846 28.0785 23.4021 28.0282 23.3416V23.3416C27.9718 23.2685 27.9411 23.1787 27.9411 23.0863V22.489C27.9411 21.6584 27.9411 21.6557 28.2024 21.4796V21.4796C28.2833 21.4258 28.3782 21.3971 28.4753 21.3971H28.9127C29.4822 21.3971 29.5023 21.3999 29.6229 21.4659Z" fill="#EAEAEA"/>
<path d="M0 0.687567L0 1.09707C0 1.25064 0.124497 1.37514 0.278071 1.37514V1.37514C0.536041 1.37514 0.569543 1.38339 0.693503 1.45489C0.767208 1.4989 0.861015 1.57866 0.901218 1.63091C0.968223 1.72167 0.971574 1.75742 0.971574 2.5L0.971574 3.03957C0.971574 3.18756 0.90667 3.32812 0.79401 3.42409V3.42409V3.42409C0.679396 3.52173 0.533753 3.57536 0.383187 3.57536H0.308223V3.57536C0.137996 3.57536 0 3.71335 0 3.88358L0 12.4862L0 21.1057C0 21.2666 0.130496 21.3971 0.291472 21.3971V21.3971C0.616447 21.3971 0.710254 21.4301 0.881117 21.6117V21.6117C0.939225 21.6735 0.971574 21.7552 0.971574 21.84L0.971574 22.478C0.971574 23.2151 0.968223 23.2508 0.901218 23.3416C0.861015 23.3938 0.767208 23.4736 0.693503 23.5176C0.569543 23.5891 0.536041 23.5974 0.278071 23.5974V23.5974C0.124497 23.5974 0 23.7219 0 23.8754L0 24.2987V24.2987C0 24.686 0.313992 25 0.70132 25L16.5 25L32.2849 25C32.6799 25 33 24.6799 33 24.2849V24.2849V23.8345C33 23.6884 32.8815 23.5699 32.7353 23.5699V23.5699C32.4874 23.5699 32.4606 23.5644 32.3266 23.4818C32.0653 23.3168 32.0619 23.2976 32.0619 22.4697V21.8807C32.0619 21.7883 32.0926 21.6985 32.149 21.6254V21.6254C32.1993 21.5649 32.2998 21.4824 32.3735 21.4411C32.4908 21.3806 32.5477 21.3696 32.7554 21.3696V21.3696C32.8905 21.3696 33 21.2601 33 21.1251L33 12.4725V3.80988C33 3.68035 32.895 3.57536 32.7655 3.57536V3.57536C32.6248 3.57536 32.4908 3.55886 32.4372 3.53685C32.3333 3.49285 32.1557 3.34158 32.0988 3.25357C32.0753 3.21507 32.0619 2.94554 32.0619 2.45324V1.86654C32.0619 1.7678 32.0976 1.67239 32.1624 1.59791V1.59791C32.3199 1.41914 32.4372 1.37514 32.742 1.37514V1.37514C32.8845 1.37514 33 1.25964 33 1.11717V0.687567V0.687567C33 0.307833 32.6922 -1.35795e-06 32.3124 -1.35795e-06L16.5 -1.35795e-06L0.687567 -1.35795e-06C0.307834 -1.35795e-06 0 0.307833 0 0.687567V0.687567ZM4.72386 1.44939C4.79421 1.4934 4.89137 1.57591 4.93827 1.63641V1.63641C4.99462 1.7058 5.02538 1.79246 5.02538 1.88185V2.49175V3.08395C5.02538 3.18269 4.98968 3.2781 4.92487 3.35258V3.35258C4.74061 3.56161 4.68365 3.57536 4.03371 3.57536C3.48426 3.57536 3.46081 3.57261 3.3536 3.50935C3.2933 3.4736 3.20619 3.40209 3.16264 3.35258V3.35258C3.11084 3.29411 3.08223 3.21869 3.08223 3.14057L3.08223 2.47525V1.84307C3.08223 1.74596 3.1208 1.65284 3.18944 1.58416V1.58416C3.38711 1.38614 3.43401 1.37514 4.04711 1.37514C4.5932 1.37514 4.59655 1.37514 4.72386 1.44939ZM8.96863 1.44389C9.03899 1.47965 9.13614 1.56216 9.1864 1.62541V1.62541C9.24708 1.70014 9.2802 1.79347 9.2802 1.88973L9.2802 2.489V3.08395C9.2802 3.18269 9.24451 3.2781 9.17969 3.35258V3.35258C8.99543 3.56161 8.93848 3.57536 8.28853 3.57536C7.73909 3.57536 7.71563 3.57261 7.60843 3.50935C7.54812 3.4736 7.46102 3.40209 7.41746 3.35258V3.35258C7.36566 3.29411 7.33706 3.21869 7.33706 3.14057V2.47525V1.84307C7.33706 1.74596 7.37562 1.65284 7.44426 1.58416V1.58416C7.64193 1.38614 7.68883 1.37514 8.30193 1.37514C8.82792 1.37514 8.85137 1.37789 8.96863 1.44389ZM13.0291 1.41639C13.0827 1.43839 13.1799 1.50715 13.2469 1.57315V1.57315C13.3239 1.64694 13.3675 1.74899 13.3675 1.85567L13.3675 2.47525V3.14057C13.3675 3.21869 13.3389 3.29411 13.2871 3.35258V3.35258C13.2436 3.40209 13.1564 3.4736 13.0961 3.50935C12.9889 3.57261 12.9655 3.57536 12.416 3.57536C11.7661 3.57536 11.7091 3.56161 11.5249 3.35258V3.35258C11.4601 3.2781 11.4244 3.18269 11.4244 3.08395V2.489L11.4244 1.88973C11.4244 1.79347 11.4575 1.70014 11.5182 1.62541V1.62541C11.5684 1.56216 11.6622 1.4824 11.7259 1.44389C11.8398 1.38064 11.8666 1.37789 12.3892 1.37514C12.808 1.37514 12.9588 1.38339 13.0291 1.41639ZM17.2103 1.45489C17.284 1.4989 17.3778 1.57866 17.418 1.63091C17.485 1.72167 17.4883 1.75743 17.4883 2.4725C17.4883 3.31133 17.4883 3.30858 17.2471 3.47635V3.47635C17.1555 3.54078 17.0463 3.57536 16.9343 3.57536H16.5033H16.1336C15.983 3.57536 15.8374 3.52173 15.7227 3.42409V3.42409V3.42409C15.6101 3.32812 15.5452 3.18756 15.5452 3.03957V2.49725C15.5452 1.61716 15.5452 1.61991 15.8165 1.45764V1.45764C15.9087 1.40362 16.0136 1.37514 16.1204 1.37514H16.5168H16.9203C17.0224 1.37514 17.1225 1.40269 17.2103 1.45489V1.45489ZM21.3646 1.45489C21.4383 1.4989 21.5321 1.57866 21.5723 1.63091C21.6393 1.72167 21.6426 1.75743 21.6426 2.4725C21.6426 3.31133 21.6426 3.30858 21.4014 3.47635V3.47635C21.3099 3.54078 21.2006 3.57536 21.0887 3.57536H20.6577H20.2879C20.1373 3.57536 19.9917 3.52173 19.8771 3.42409V3.42409V3.42409C19.7644 3.32812 19.6995 3.18756 19.6995 3.03957V2.5C19.6995 1.75742 19.7028 1.72167 19.7698 1.63091C19.8101 1.57866 19.9039 1.4989 19.9776 1.45489V1.45489C20.0653 1.40269 20.1655 1.37514 20.2675 1.37514H20.6711H21.0746C21.1767 1.37514 21.2769 1.40269 21.3646 1.45489V1.45489ZM25.4921 1.41639C25.5457 1.43839 25.6428 1.50715 25.7098 1.57315V1.57315C25.7869 1.64694 25.8305 1.74899 25.8305 1.85567V2.47525V3.14057C25.8305 3.21869 25.8019 3.29411 25.7501 3.35258V3.35258C25.7065 3.40209 25.6194 3.4736 25.5591 3.50935C25.4519 3.57261 25.4284 3.57536 24.879 3.57536C24.229 3.57536 24.1721 3.56161 23.9878 3.35258V3.35258C23.923 3.2781 23.8873 3.18269 23.8873 3.08395V2.4835V1.86172C23.8873 1.77651 23.9169 1.69395 23.9711 1.62816V1.62816C24.018 1.57316 24.1118 1.4934 24.1788 1.44939C24.2994 1.37514 24.3027 1.37514 24.8488 1.37514C25.2676 1.37514 25.4217 1.38614 25.4921 1.41639ZM29.5459 1.41639C29.5995 1.43839 29.6966 1.50715 29.7637 1.57315V1.57315C29.8407 1.64694 29.8843 1.74899 29.8843 1.85567V2.47525V3.14057C29.8843 3.21869 29.8557 3.29411 29.8039 3.35258V3.35258C29.7603 3.40209 29.6732 3.4736 29.6129 3.50935C29.5057 3.57261 29.4822 3.57536 28.9328 3.57536C28.2828 3.57536 28.2259 3.56161 28.0416 3.35258V3.35258C27.9768 3.2781 27.9411 3.18269 27.9411 3.08395V2.49175V1.88185C27.9411 1.79246 27.9719 1.7058 28.0282 1.63641V1.63641C28.0751 1.57591 28.1689 1.4934 28.2359 1.45214C28.3599 1.37789 28.3666 1.37789 28.906 1.37514C29.3248 1.37514 29.4755 1.38339 29.5459 1.41639ZM4.73056 21.4549C4.78416 21.4879 4.87462 21.5649 4.92822 21.6254V21.6254C4.99083 21.6963 5.02538 21.7876 5.02538 21.8822V22.4807V23.0863C5.02538 23.1787 4.99475 23.2685 4.93827 23.3416V23.3416C4.88802 23.4021 4.78751 23.4846 4.71381 23.5259C4.5798 23.5946 4.56305 23.5974 4.03371 23.5974H3.65026C3.54819 23.5974 3.44802 23.5698 3.3603 23.5176V23.5176C3.07553 23.3498 3.08223 23.3718 3.08223 22.4972C3.08223 21.7547 3.08558 21.7162 3.15259 21.6254C3.19279 21.5759 3.27655 21.5016 3.34355 21.4659C3.46081 21.3999 3.48426 21.3971 4.04711 21.3971C4.5865 21.3971 4.63675 21.4026 4.73056 21.4549ZM8.98538 21.4549C9.03899 21.4879 9.12944 21.5649 9.18305 21.6254V21.6254C9.24565 21.6963 9.2802 21.7876 9.2802 21.8822L9.2802 22.4807V23.0863C9.2802 23.1787 9.24957 23.2685 9.1931 23.3416V23.3416C9.14284 23.4021 9.04234 23.4846 8.96863 23.5259C8.83462 23.5946 8.81787 23.5974 8.28853 23.5974H7.90509C7.80302 23.5974 7.70284 23.5698 7.61513 23.5176V23.5176C7.33036 23.3498 7.33706 23.3718 7.33706 22.4972C7.33706 21.7547 7.34041 21.7162 7.40741 21.6254C7.44761 21.5759 7.53137 21.5016 7.59838 21.4659C7.71563 21.3999 7.73909 21.3971 8.30193 21.3971C8.84132 21.3971 8.89157 21.4026 8.98538 21.4549ZM13.1062 21.4659C13.1732 21.5016 13.257 21.5759 13.2972 21.6254C13.3642 21.7162 13.3675 21.7547 13.3675 22.4972C13.3675 23.3718 13.3742 23.3498 13.0894 23.5176V23.5176C13.0017 23.5698 12.9016 23.5974 12.7995 23.5974L12.416 23.5974C11.8867 23.5974 11.8699 23.5946 11.7359 23.5259C11.6622 23.4846 11.5617 23.4021 11.5115 23.3416V23.3416C11.455 23.2685 11.4244 23.1787 11.4244 23.0863V22.489C11.4244 21.6584 11.4244 21.6557 11.6857 21.4796V21.4796C11.7665 21.4258 11.8615 21.3971 11.9586 21.3971H12.3959C12.9655 21.3971 12.9856 21.3999 13.1062 21.4659ZM17.2471 21.4961C17.4883 21.6639 17.4883 21.6612 17.4883 22.5V23.1169C17.4883 23.2033 17.4574 23.2869 17.4012 23.3526V23.3526C17.3543 23.4103 17.2572 23.4873 17.1835 23.5259C17.0595 23.5946 17.0394 23.5974 16.5134 23.5974C15.897 23.5974 15.8266 23.5781 15.6423 23.3691V23.3691C15.5797 23.2982 15.5452 23.2069 15.5452 23.1123V22.4835L15.5452 21.8319C15.5452 21.7538 15.5738 21.6784 15.6256 21.6199V21.6199C15.6691 21.5704 15.7562 21.4989 15.8165 21.4631C15.9238 21.3999 15.9439 21.3971 16.5168 21.3971H16.9343C17.0463 21.3971 17.1555 21.4317 17.2471 21.4961V21.4961ZM21.4115 21.4989C21.6426 21.6722 21.6426 21.6667 21.6426 22.5C21.6426 23.2151 21.6393 23.2508 21.5723 23.3416C21.5321 23.3938 21.4383 23.4736 21.3646 23.5176V23.5176C21.2769 23.5698 21.1767 23.5974 21.0746 23.5974H20.6778C20.0513 23.5974 19.9809 23.5809 19.7966 23.3691V23.3691C19.734 23.2982 19.6995 23.2069 19.6995 23.1123V22.4917V21.8578C19.6995 21.7701 19.7317 21.6855 19.7899 21.6199V21.6199C19.9776 21.4054 20.0111 21.3971 20.6778 21.3971H21.1032C21.2142 21.3971 21.3223 21.4328 21.4115 21.4989V21.4989ZM25.5591 21.4631C25.6194 21.4989 25.7065 21.5704 25.7501 21.6199V21.6199C25.8019 21.6784 25.8305 21.7538 25.8305 21.8319V22.4807C25.8305 23.3553 25.8305 23.3526 25.5591 23.5149V23.5149C25.4669 23.5689 25.3621 23.5974 25.2553 23.5974H24.879C24.353 23.5974 24.3329 23.5946 24.2056 23.5259C24.1319 23.4873 24.0314 23.4076 23.9811 23.3498V23.3498C23.9207 23.2825 23.8873 23.1953 23.8873 23.1049V22.4972C23.8873 21.6612 23.8873 21.6639 24.1285 21.4961V21.4961C24.2201 21.4317 24.3293 21.3971 24.4413 21.3971H24.8589C25.4318 21.3971 25.4519 21.3999 25.5591 21.4631ZM29.6229 21.4659C29.6899 21.5016 29.7737 21.5759 29.8139 21.6254C29.8809 21.7162 29.8843 21.7547 29.8843 22.5028V23.1168C29.8843 23.2235 29.8407 23.3256 29.7637 23.3993V23.3993C29.5693 23.5864 29.5224 23.5974 28.9194 23.5974C28.4035 23.5974 28.3867 23.5946 28.2527 23.5259C28.179 23.4846 28.0785 23.4021 28.0282 23.3416V23.3416C27.9718 23.2685 27.9411 23.1787 27.9411 23.0863V22.489C27.9411 21.6584 27.9411 21.6557 28.2024 21.4796V21.4796C28.2833 21.4258 28.3782 21.3971 28.4753 21.3971H28.9127C29.4822 21.3971 29.5023 21.3999 29.6229 21.4659Z" fill="#EAEAEA"/>
</svg>
