<svg width="29" height="34" viewBox="0 0 29 34" fill="none" xmlns="http://www.w3.org/2000/svg">
<mask id="mask0_372_56" style="mask-type:alpha" maskUnits="userSpaceOnUse" x="18" y="1" width="11" height="13">
<path d="M28.0638 7.7906C27.9167 10.9488 25.6203 13.4076 22.9346 13.2825C20.2489 13.1574 18.191 10.4957 18.3381 7.33754C18.4852 4.17935 20.7817 1.72056 23.4673 1.84567C26.153 1.97078 28.2109 4.63242 28.0638 7.7906Z" fill="#EAD516"/>
</mask>
<g mask="url(#mask0_372_56)">
<path d="M28.0638 7.7906C27.9167 10.9488 25.6203 13.4076 22.9346 13.2825C20.2489 13.1574 18.191 10.4957 18.3381 7.33754C18.4852 4.17935 20.7817 1.72056 23.4673 1.84567C26.153 1.97078 28.2109 4.63242 28.0638 7.7906Z" fill="#EAD516"/>
<path d="M19.5901 3.5387C23.9515 7.97693 25.507 13.0907 25.507 13.0907" stroke="black"/>
</g>
<path d="M3.96742 25.5798L22.0065 14.9585L20.4502 14.2967C19.9792 14.0963 19.5531 13.8037 19.1971 13.436L18.6108 12.8306C18.2019 12.4085 17.869 11.919 17.6265 11.3837C17.2102 10.4645 16.9319 9.48884 16.8005 8.48836L16.6389 7.25841L2.04056 22.4813L3.96742 25.5798Z" fill="#EAD516"/>
<path d="M3.99976 22V22C2.1919 24.1092 1.86771 27.1132 3.18395 29.5595L4.49707 32" stroke="#EAD516"/>
</svg>
