<svg width="57" height="47" viewBox="0 0 57 47" fill="none" xmlns="http://www.w3.org/2000/svg">
<line x1="40.4657" y1="23.5" x2="11.7481" y2="23.5" stroke="#00FF85"/>
<line x1="37.855" y1="14.5" x2="15.229" y2="14.5" stroke="#00FF85"/>
<line x1="37.855" y1="31.5" x2="15.229" y2="31.5" stroke="#00FF85"/>
<path d="M39.9656 23C39.9656 31.0289 33.7405 37.5 26.1069 37.5C18.4732 37.5 12.2481 31.0289 12.2481 23C12.2481 14.9711 18.4732 8.5 26.1069 8.5C33.7405 8.5 39.9656 14.9711 39.9656 23Z" stroke="black"/>
<path d="M39.9656 23C39.9656 31.0289 33.7405 37.5 26.1069 37.5C18.4732 37.5 12.2481 31.0289 12.2481 23C12.2481 14.9711 18.4732 8.5 26.1069 8.5C33.7405 8.5 39.9656 14.9711 39.9656 23Z" stroke="#00FF85"/>
<path d="M28.6527 23C28.6527 27.1157 28.2651 30.826 27.6461 33.4936C27.3356 34.8314 26.9731 35.8793 26.5883 36.5807C26.3958 36.9316 26.2102 37.1724 26.0426 37.3202C25.8781 37.4653 25.7563 37.5 25.6717 37.5C25.5872 37.5 25.4654 37.4653 25.3009 37.3202C25.1333 37.1724 24.9477 36.9316 24.7552 36.5807C24.3704 35.8793 24.0079 34.8314 23.6974 33.4936C23.0784 30.826 22.6908 27.1157 22.6908 23C22.6908 18.8843 23.0784 15.174 23.6974 12.5064C24.0079 11.1686 24.3704 10.1207 24.7552 9.41928C24.9477 9.06838 25.1333 8.82759 25.3009 8.67977C25.4654 8.53475 25.5872 8.5 25.6717 8.5C25.7563 8.5 25.8781 8.53475 26.0426 8.67977C26.2102 8.82759 26.3958 9.06838 26.5883 9.41928C26.9731 10.1207 27.3356 11.1686 27.6461 12.5064C28.2651 15.174 28.6527 18.8843 28.6527 23Z" stroke="#00FF85"/>
<path d="M34.7443 23C34.7443 27.0658 33.7394 30.7226 32.141 33.3465C30.5372 35.9792 28.3892 37.5 26.1069 37.5C23.8245 37.5 21.6765 35.9792 20.0728 33.3465C18.4744 30.7226 17.4695 27.0658 17.4695 23C17.4695 18.9342 18.4744 15.2774 20.0728 12.6535C21.6765 10.0208 23.8245 8.5 26.1069 8.5C28.3892 8.5 30.5372 10.0208 32.141 12.6535C33.7394 15.2774 34.7443 18.9342 34.7443 23Z" stroke="#00FF85"/>
<path d="M25.6718 0V8M23.9313 8H27.4122" stroke="#00FF85"/>
<line y1="-0.5" x2="13.139" y2="-0.5" transform="matrix(0.728558 0.684984 -0.580008 0.814611 3.04581 2)" stroke="#00FF85"/>
<line y1="-0.5" x2="11.3784" y2="-0.5" transform="matrix(0.611848 -0.790975 0.699567 0.714567 40.4657 12)" stroke="#04E47A"/>
<line y1="-0.5" x2="11.3784" y2="-0.5" transform="matrix(0.611848 -0.790975 0.699567 0.714567 7.39694 47)" stroke="#04E47A"/>
<line y1="-0.5" x2="10.5043" y2="-0.5" transform="matrix(-0.745602 -0.666391 0.560522 -0.82814 48.2977 46)" stroke="#00FF85"/>
<line x1="50.0382" y1="18.5" x2="43.0763" y2="18.5" stroke="#00FF85"/>
<line x1="57" y1="26.5" x2="50.0382" y2="26.5" stroke="#00FF85"/>
<path d="M6.96184 28L6.137e-06 28" stroke="#00FF85"/>
<line x1="10.0076" y1="18.5" x2="3.04581" y2="18.5" stroke="#00FF85"/>
</svg>
