<svg width="131" height="129" viewBox="0 0 131 129" fill="none" xmlns="http://www.w3.org/2000/svg">
<path d="M79.7031 75.6809L88.873 60.0406C89.4625 59.0711 89.2005 57.8432 88.349 57.1323L78.6551 49.6353C78.8516 48.2134 78.9826 46.727 78.9826 45.2405C78.9826 43.754 78.8516 42.2675 78.6551 40.7811L88.349 33.2841C89.2005 32.5731 89.4625 31.3452 88.873 30.3758L79.7031 14.7355C79.1136 13.766 77.9346 13.3783 76.8866 13.766L65.4897 18.2901C63.1318 16.4805 60.5773 14.994 57.7608 13.8307L56.0578 1.87425C55.8613 0.84018 54.8788 0 53.7654 0H35.4255C34.3121 0 33.3296 0.84018 33.1331 1.93888L31.4301 13.8953C28.6791 15.0586 26.0591 16.5451 23.7012 18.3547L12.3043 13.8307C11.2563 13.4429 10.0773 13.8307 9.48783 14.8001L0.317924 30.4404C-0.27157 31.4098 -0.00957179 32.6378 0.841919 33.3487L10.5358 40.8457C10.3393 42.2675 10.2083 43.754 10.2083 45.2405C10.2083 46.727 10.3393 48.2134 10.5358 49.6999L0.841919 57.1969C-0.00957179 57.9078 -0.27157 59.1358 0.317924 60.1052L9.48783 75.7455C10.0773 76.7149 11.2563 77.1027 12.3043 76.7149L23.7012 72.1909C26.0591 74.0005 28.6136 75.487 31.4301 76.6503L33.1331 88.6067C33.3296 89.6408 34.3121 90.481 35.4255 90.481H53.7654C54.8788 90.481 55.8613 89.6408 56.0578 88.5421L57.7608 76.5857C60.5118 75.4224 63.1318 73.9359 65.4897 72.1263L76.8866 76.6503C77.9346 77.0381 79.1136 76.6503 79.7031 75.6809ZM44.5955 58.1663C37.3905 58.1663 31.4956 52.3497 31.4956 45.2405C31.4956 38.1313 37.3905 32.3146 44.5955 32.3146C51.8004 32.3146 57.6953 38.1313 57.6953 45.2405C57.6953 52.3497 51.8004 58.1663 44.5955 58.1663Z" fill="#025D31"/>
<path d="M130.465 107.737L124.177 102.954C124.308 102.05 124.439 101.08 124.439 100.111C124.439 99.1413 124.374 98.1718 124.177 97.267L130.399 92.4844C130.923 92.032 131.12 91.2565 130.727 90.6102L124.832 80.5927C124.505 79.9464 123.719 79.7525 122.998 79.9464L115.728 82.8547C114.221 81.6914 112.584 80.7219 110.75 80.011L109.636 72.3847C109.571 71.6092 108.916 71.0922 108.261 71.0922H96.5363C95.8159 71.0922 95.1609 71.6092 95.0954 72.3201L93.9819 79.9464C92.2134 80.7219 90.5104 81.6267 89.0039 82.7901L81.7335 79.8817C81.0785 79.6232 80.2925 79.8817 79.8995 80.528L74.0046 90.5456C73.6771 91.1919 73.7426 91.9674 74.3321 92.4198L80.5545 97.2024C80.4235 98.1072 80.358 99.0766 80.358 100.046C80.358 101.016 80.4235 101.985 80.5545 102.89L74.3321 107.672C73.8081 108.125 73.6116 108.9 74.0046 109.547L79.8995 119.564C80.227 120.21 81.013 120.404 81.7335 120.21L89.0039 117.302C90.5104 118.465 92.1479 119.435 93.9819 120.146L95.0954 127.772C95.2264 128.483 95.8159 129 96.5363 129H108.261C108.981 129 109.636 128.483 109.702 127.772L110.815 120.146C112.584 119.37 114.287 118.465 115.728 117.302L123.064 120.21C123.719 120.469 124.505 120.21 124.898 119.564L130.792 109.547C131.185 108.965 130.989 108.189 130.465 107.737ZM102.366 108.771C97.5188 108.771 93.5234 104.893 93.5234 100.046C93.5234 95.1989 97.4533 91.3211 102.366 91.3211C107.278 91.3211 111.208 95.1989 111.208 100.046C111.208 104.893 107.213 108.771 102.366 108.771Z" fill="#025D31"/>
</svg>
