<svg width="26" height="26" viewBox="0 0 26 26" fill="none" xmlns="http://www.w3.org/2000/svg">
<circle cx="13" cy="13" r="13" fill="#ECECEC"/>
<path d="M6.24023 5.20001V18.5212C6.24023 18.9246 6.48258 19.2885 6.85478 19.444L11.2051 21.2613C11.8639 21.5365 12.5905 21.0525 12.5905 20.3385V19.1873V8.51877C12.5905 8.11541 12.3482 7.75153 11.976 7.59605L6.24023 5.20001Z" fill="#D73F35"/>
<path d="M6.24023 5.20001V18.5212C6.24023 18.9246 6.48258 19.2885 6.85478 19.444L11.2051 21.2613C11.8639 21.5365 12.5905 21.0525 12.5905 20.3385V19.1873V8.51877C12.5905 8.11541 12.3482 7.75153 11.976 7.59605L6.24023 5.20001Z" fill="#375CA4"/>
<path d="M6.24023 5.20001V18.5212C6.24023 18.9246 6.48258 19.2885 6.85478 19.444L11.2051 21.2613C11.8639 21.5365 12.5905 21.0525 12.5905 20.3385V19.1873M6.24023 5.20001L11.976 7.59605C12.3482 7.75153 12.5905 8.11541 12.5905 8.51877V19.1873M6.24023 5.20001H17.2512C17.8035 5.20001 18.2512 5.64773 18.2512 6.20001V14.5M18.2512 19.1873H12.5905" stroke="#375CA4"/>
<path d="M16.8453 15.31L20.7932 17.3215C21.0393 17.4469 21.1371 17.748 21.0117 17.994L20.9658 18.0842C20.8404 18.3302 20.5393 18.4281 20.2933 18.3027L16.3454 16.2912L16.2788 16.4219C16.1144 16.7446 15.672 16.7909 15.4444 16.5091L14.3699 15.179C14.0982 14.8427 14.3526 14.3434 14.7844 14.3655L16.492 14.4529C16.8538 14.4715 17.0764 14.8565 16.9119 15.1793L16.8453 15.31Z" fill="#D73F35" stroke="#D73F35"/>
</svg>
