<svg width="26" height="26" viewBox="0 0 26 26" fill="none" xmlns="http://www.w3.org/2000/svg">
<mask id="mask0_526:112" style="mask-type:alpha" maskUnits="userSpaceOnUse" x="3" y="4" width="20" height="20">
<circle cx="12.75" cy="13.75" r="9.75" fill="#1C9957"/>
</mask>
<g mask="url(#mask0_526:112)">
<path d="M23 21.4167V5.58333C23 4.70881 22.2539 4 21.3333 4H4.66667C3.74611 4 3 4.70881 3 5.58333V21.4167C3 22.2912 3.74611 23 4.66667 23H21.3333C22.2539 23 23 22.2912 23 21.4167Z" fill="#1C9957"/>
<path d="M5.06134 24H20.9387C21.8156 24 13 14 13 14C13 14 4.18439 24 5.06134 24Z" fill="#3E7BF1"/>
<path d="M22.7502 21.125V4.87501C22.7502 3.97747 14.0835 13 14.0835 13C14.0835 13 22.7502 22.0226 22.7502 21.125Z" fill="#CBCCC9"/>
<path d="M21.1252 22.75C22.0227 22.75 22.7502 22.0226 22.7502 21.125V20.9923L14.2162 12.4583L12.4585 14.2161L20.9925 22.75H21.1252Z" fill="#EFEFEF"/>
<path d="M22.75 4.875C22.75 3.97746 22.0225 3.25 21.125 3.25H20.9923L3.25 20.9923V21.125C3.25 22.0225 3.97746 22.75 4.875 22.75H5.00771L22.75 5.00771V4.875Z" fill="#FFD73D"/>
<path d="M7.97971 9.45429V10.5923H9.60146C9.38913 11.2824 8.81333 11.7759 7.97971 11.7759C6.98683 11.7759 6.18246 10.9715 6.18246 9.97862C6.18246 8.98575 6.98738 8.18137 7.97971 8.18137C8.42604 8.18137 8.83338 8.34496 9.14754 8.61417L9.98604 7.77621C9.45683 7.29412 8.75267 7 7.97971 7C6.33413 7 5 8.33413 5 9.97917C5 11.6242 6.33413 12.9583 7.97971 12.9583C10.5851 12.9583 11.0331 10.62 10.7877 9.45862L7.97971 9.45429Z" fill="white"/>
</g>
<path d="M19.5002 1.08334C16.5085 1.08334 14.0835 3.50839 14.0835 6.50001C14.0835 10.1904 18.2359 11.5348 19.1389 17.2526C19.1968 17.621 19.2012 17.875 19.5002 17.875C19.7992 17.875 19.8035 17.621 19.8615 17.2526C20.7644 11.5348 24.9168 10.1904 24.9168 6.50001C24.9168 3.50839 22.4918 1.08334 19.5002 1.08334Z" fill="#D73F35"/>
<path d="M19.4998 4.60416C19.2509 4.60416 19.0043 4.65319 18.7743 4.74847C18.5443 4.84374 18.3353 4.98339 18.1593 5.15943C17.9832 5.33548 17.8436 5.54447 17.7483 5.77449C17.653 6.0045 17.604 6.25103 17.604 6.49999C17.604 6.74895 17.653 6.99548 17.7483 7.22549C17.8436 7.45551 17.9832 7.6645 18.1593 7.84055C18.3353 8.01659 18.5443 8.15624 18.7743 8.25151C19.0043 8.34679 19.2509 8.39582 19.4998 8.39582C19.7488 8.39582 19.9953 8.34679 20.2253 8.25151C20.4554 8.15624 20.6643 8.01659 20.8404 7.84055C21.0164 7.6645 21.1561 7.45551 21.2514 7.22549C21.3466 6.99548 21.3957 6.74895 21.3957 6.49999C21.3957 6.25103 21.3466 6.0045 21.2514 5.77449C21.1561 5.54447 21.0164 5.33548 20.8404 5.15943C20.6643 4.98339 20.4554 4.84374 20.2253 4.74847C19.9953 4.65319 19.7488 4.60416 19.4998 4.60416Z" fill="#752622"/>
</svg>
