<svg width="310" height="206" viewBox="0 0 310 206" fill="none" xmlns="http://www.w3.org/2000/svg">
<rect x="114.786" y="26.8874" width="106.227" height="62.2252" fill="white"/>
<path d="M167.5 0L220.761 27.0795H114.239L167.5 0Z" fill="white"/>
<path d="M167.5 116L114.239 88.9205L220.761 88.9205L167.5 116Z" fill="white"/>
<g clip-path="url(#clip0_108_2)">
<path d="M143.345 61.828L144.557 61.1559L155.08 55.2913L155.101 55.3021L174.949 44.2851L174.944 34.8461L126.361 61.8019L186.024 94.4901L194.237 89.9346L179.032 81.5365L143.345 61.828Z" fill="black"/>
<path d="M176.626 45.2154L176.636 67.1018L185.066 71.7195L185.039 17.6689L125.538 50.6813L125.543 60.393L176.62 32.056L176.626 45.2154Z" fill="black"/>
<path d="M186.743 74.4952L176.638 68.9579L176.637 68.9633L174.822 67.9623L155.107 57.1597L146.703 61.825L195.086 88.5442L195.053 22.2836L186.716 17.6797L186.743 74.4952Z" fill="black"/>
</g>
<path d="M289.648 188.384C286.32 188.384 283.12 187.851 280.048 186.784C277.019 185.675 274.672 184.267 273.008 182.56L274.864 178.912C276.443 180.448 278.555 181.749 281.2 182.816C283.888 183.84 286.704 184.352 289.648 184.352C292.464 184.352 294.747 184.011 296.496 183.328C298.288 182.603 299.589 181.643 300.4 180.448C301.253 179.253 301.68 177.931 301.68 176.48C301.68 174.731 301.168 173.323 300.144 172.256C299.163 171.189 297.861 170.357 296.24 169.76C294.619 169.12 292.827 168.565 290.864 168.096C288.901 167.627 286.939 167.136 284.976 166.624C283.013 166.069 281.2 165.344 279.536 164.448C277.915 163.552 276.592 162.379 275.568 160.928C274.587 159.435 274.096 157.493 274.096 155.104C274.096 152.885 274.672 150.859 275.824 149.024C277.019 147.147 278.832 145.653 281.264 144.544C283.696 143.392 286.811 142.816 290.608 142.816C293.125 142.816 295.621 143.179 298.096 143.904C300.571 144.587 302.704 145.547 304.496 146.784L302.896 150.56C300.976 149.28 298.928 148.341 296.752 147.744C294.619 147.147 292.549 146.848 290.544 146.848C287.856 146.848 285.637 147.211 283.888 147.936C282.139 148.661 280.837 149.643 279.984 150.88C279.173 152.075 278.768 153.44 278.768 154.976C278.768 156.725 279.259 158.133 280.24 159.2C281.264 160.267 282.587 161.099 284.208 161.696C285.872 162.293 287.685 162.827 289.648 163.296C291.611 163.765 293.552 164.277 295.472 164.832C297.435 165.387 299.227 166.112 300.848 167.008C302.512 167.861 303.835 169.013 304.816 170.464C305.84 171.915 306.352 173.813 306.352 176.16C306.352 178.336 305.755 180.363 304.56 182.24C303.365 184.075 301.531 185.568 299.056 186.72C296.624 187.829 293.488 188.384 289.648 188.384Z" fill="white"/>
<path d="M220.98 188V139H225.25L259.06 181.56H256.82V139H261.93V188H257.66L223.92 145.44H226.16V188H220.98Z" fill="white"/>
<path d="M143.326 188L165.712 157.736V162.182L144.652 133.4H151.282L168.988 157.424L166.414 157.502L184.12 133.4H190.36L169.534 161.792V157.736L191.842 188H185.134L166.258 162.338H168.676L149.956 188H143.326Z" fill="white"/>
<path d="M94.436 188V136.2H113.824C118.215 136.2 121.989 136.915 125.146 138.346C128.303 139.727 130.721 141.75 132.398 144.414C134.125 147.029 134.988 150.211 134.988 153.96C134.988 157.611 134.125 160.768 132.398 163.432C130.721 166.047 128.303 168.069 125.146 169.5C121.989 170.881 118.215 171.572 113.824 171.572H97.47L99.912 169.056V188H94.436ZM129.808 188L116.488 169.204H122.408L135.802 188H129.808ZM99.912 169.5L97.47 166.91H113.676C118.856 166.91 122.778 165.775 125.442 163.506C128.155 161.237 129.512 158.055 129.512 153.96C129.512 149.816 128.155 146.609 125.442 144.34C122.778 142.071 118.856 140.936 113.676 140.936H97.47L99.912 138.346V169.5Z" fill="white"/>
<path d="M54.24 161.684H79.4V165.968H54.24V161.684ZM54.784 183.648H83.412V188H49.752V140.4H82.392V144.752H54.784V183.648Z" fill="white"/>
<path d="M7.296 188V143.2H24.064C27.8613 143.2 31.1253 143.819 33.856 145.056C36.5867 146.251 38.6773 148 40.128 150.304C41.6213 152.565 42.368 155.317 42.368 158.56C42.368 161.717 41.6213 164.448 40.128 166.752C38.6773 169.013 36.5867 170.763 33.856 172C31.1253 173.237 27.8613 173.856 24.064 173.856H9.92L12.032 171.616V188H7.296ZM12.032 172L9.92 169.696H23.936C28.416 169.696 31.808 168.736 34.112 166.816C36.4587 164.853 37.632 162.101 37.632 158.56C37.632 154.976 36.4587 152.203 34.112 150.24C31.808 148.277 28.416 147.296 23.936 147.296H9.92L12.032 145.056V172Z" fill="white"/>
<path d="M204.436 188V136.2H209.912V188H204.436Z" fill="white"/>
<defs>
<clipPath id="clip0_108_2">
<rect width="79.8701" height="76.8212" fill="white" transform="translate(120.377 17.6689)"/>
</clipPath>
</defs>
</svg>
