<svg width="226" height="49" viewBox="0 0 226 49" fill="none" xmlns="http://www.w3.org/2000/svg">
<path d="M0.296 48V3.2H17.064C20.8613 3.2 24.1253 3.81866 26.856 5.056C29.5867 6.25067 31.6773 8 33.128 10.304C34.6213 12.5653 35.368 15.3173 35.368 18.56C35.368 21.7173 34.6213 24.448 33.128 26.752C31.6773 29.0133 29.5867 30.7627 26.856 32C24.1253 33.2373 20.8613 33.856 17.064 33.856H2.92L5.032 31.616V48H0.296ZM5.032 32L2.92 29.696H16.936C21.416 29.696 24.808 28.736 27.112 26.816C29.4587 24.8533 30.632 22.1013 30.632 18.56C30.632 14.976 29.4587 12.2027 27.112 10.24C24.808 8.27733 21.416 7.296 16.936 7.296H2.92L5.032 5.056V32ZM58.733 48.32C55.2343 48.32 52.1623 47.5947 49.517 46.144C46.8717 44.6507 44.8023 42.624 43.309 40.064C41.8157 37.4613 41.069 34.496 41.069 31.168C41.069 27.84 41.773 24.896 43.181 22.336C44.6317 19.776 46.5943 17.7707 49.069 16.32C51.5863 14.8267 54.4023 14.08 57.517 14.08C60.6743 14.08 63.469 14.8053 65.901 16.256C68.3757 17.664 70.317 19.6693 71.725 22.272C73.133 24.832 73.837 27.7973 73.837 31.168C73.837 31.3813 73.8157 31.616 73.773 31.872C73.773 32.0853 73.773 32.32 73.773 32.576H44.525V29.184H71.341L69.549 30.528C69.549 28.096 69.0157 25.9413 67.949 24.064C66.925 22.144 65.517 20.6507 63.725 19.584C61.933 18.5173 59.8637 17.984 57.517 17.984C55.213 17.984 53.1437 18.5173 51.309 19.584C49.4743 20.6507 48.045 22.144 47.021 24.064C45.997 25.984 45.485 28.1813 45.485 30.656V31.36C45.485 33.92 46.0397 36.1813 47.149 38.144C48.301 40.064 49.8797 41.5787 51.885 42.688C53.933 43.7547 56.2583 44.288 58.861 44.288C60.909 44.288 62.8077 43.9253 64.557 43.2C66.349 42.4747 67.885 41.3653 69.165 39.872L71.725 42.816C70.2317 44.608 68.3543 45.9733 66.093 46.912C63.8743 47.8507 61.421 48.32 58.733 48.32ZM83.086 48V14.4H87.438V23.552L86.99 21.952C87.9287 19.392 89.5073 17.4507 91.726 16.128C93.9447 14.7627 96.6967 14.08 99.982 14.08V18.496C99.8113 18.496 99.6407 18.496 99.47 18.496C99.2993 18.4533 99.1287 18.432 98.958 18.432C95.4167 18.432 92.6433 19.52 90.638 21.696C88.6327 23.8293 87.63 26.88 87.63 30.848V48H83.086ZM103.154 48L117.362 29.568L117.298 31.808L103.794 14.4H108.914L119.986 28.8L118.066 28.736L129.138 14.4H134.13L120.498 32L120.562 29.568L134.898 48H129.714L118.002 32.64L119.794 32.896L108.274 48H103.154ZM142.461 48V14.4H147.005V48H142.461ZM144.765 6.976C143.826 6.976 143.037 6.656 142.397 6.016C141.757 5.376 141.437 4.608 141.437 3.712C141.437 2.816 141.757 2.06933 142.397 1.472C143.037 0.831997 143.826 0.511997 144.765 0.511997C145.704 0.511997 146.493 0.810664 147.133 1.408C147.773 2.00533 148.093 2.752 148.093 3.648C148.093 4.58667 147.773 5.376 147.133 6.016C146.536 6.656 145.746 6.976 144.765 6.976ZM176.801 14.08C179.531 14.08 181.921 14.6133 183.969 15.68C186.059 16.704 187.681 18.2827 188.833 20.416C190.027 22.5493 190.625 25.2373 190.625 28.48V48H186.081V28.928C186.081 25.3867 185.185 22.72 183.393 20.928C181.643 19.0933 179.169 18.176 175.969 18.176C173.579 18.176 171.489 18.6667 169.697 19.648C167.947 20.5867 166.582 21.9733 165.601 23.808C164.662 25.6 164.193 27.776 164.193 30.336V48H159.649V14.4H164.001V23.616L163.297 21.888C164.363 19.456 166.07 17.5573 168.417 16.192C170.763 14.784 173.558 14.08 176.801 14.08ZM211.923 48.32C209.149 48.32 206.525 47.936 204.051 47.168C201.576 46.3573 199.635 45.3547 198.227 44.16L200.275 40.576C201.64 41.6 203.389 42.496 205.523 43.264C207.656 43.9893 209.896 44.352 212.243 44.352C215.443 44.352 217.747 43.8613 219.155 42.88C220.563 41.856 221.267 40.512 221.267 38.848C221.267 37.6107 220.861 36.6507 220.051 35.968C219.283 35.2427 218.259 34.7093 216.979 34.368C215.699 33.984 214.269 33.664 212.691 33.408C211.112 33.152 209.533 32.8533 207.955 32.512C206.419 32.1707 205.011 31.68 203.731 31.04C202.451 30.3573 201.405 29.44 200.595 28.288C199.827 27.136 199.443 25.6 199.443 23.68C199.443 21.8453 199.955 20.2027 200.979 18.752C202.003 17.3013 203.496 16.1707 205.459 15.36C207.464 14.5067 209.896 14.08 212.755 14.08C214.931 14.08 217.107 14.3787 219.283 14.976C221.459 15.5307 223.251 16.2773 224.659 17.216L222.675 20.864C221.181 19.84 219.581 19.1147 217.875 18.688C216.168 18.2187 214.461 17.984 212.755 17.984C209.725 17.984 207.485 18.5173 206.035 19.584C204.627 20.608 203.923 21.9307 203.923 23.552C203.923 24.832 204.307 25.8347 205.075 26.56C205.885 27.2853 206.931 27.8613 208.211 28.288C209.533 28.672 210.963 28.992 212.499 29.248C214.077 29.504 215.635 29.824 217.171 30.208C218.749 30.5493 220.179 31.04 221.459 31.68C222.781 32.2773 223.827 33.152 224.595 34.304C225.405 35.4133 225.811 36.8853 225.811 38.72C225.811 40.6827 225.256 42.3893 224.147 43.84C223.08 45.248 221.501 46.3573 219.411 47.168C217.363 47.936 214.867 48.32 211.923 48.32Z" fill="white"/>
</svg>
