<svg width="64" height="43" viewBox="0 0 64 43" fill="none" xmlns="http://www.w3.org/2000/svg">
<path d="M46.6576 1.72348C46.5964 0.69612 45.8914 -0.072301 45.0877 0.00541134C44.282 0.0837454 43.6787 0.979614 43.7402 2.00666L43.7806 2.68338L2.76448 20.5777C2.50332 19.9312 1.95611 19.5128 1.35184 19.5706C0.54615 19.6489 -0.0571437 20.5451 0.00430734 21.5718L0.481285 29.5526C0.539566 30.5315 1.1809 31.2762 1.93855 31.2762C1.97586 31.2762 2.01366 31.2744 2.05146 31.2706C2.64914 31.2125 3.13465 30.704 3.32096 30.0263L7.64277 31.0785C7.83347 37.2986 7.02347 42.2755 11.9488 42.2755C15.57 42.2755 15.3305 37.131 16.7858 32.95L46.0365 40.4252L46.078 41.1181C46.1363 42.0969 46.7776 42.8417 47.5353 42.8417C47.5726 42.8417 47.6104 42.8398 47.6482 42.8361C48.4539 42.7578 49.0571 41.8619 48.9957 40.8349L46.6576 1.72348Z" fill="#025D31"/>
<path d="M54.045 20.8367L62.4089 20.1469C63.3574 20.0689 64.0677 19.1727 63.9953 18.1457C63.9233 17.1183 63.0942 16.3477 62.1471 16.4276L53.7832 17.1174C52.8346 17.1954 52.1244 18.0916 52.1967 19.1187C52.2653 20.0975 53.0204 20.8423 53.9123 20.8423C53.956 20.8423 54.0002 20.8404 54.045 20.8367V20.8367Z" fill="#025D31"/>
<path d="M54.1337 9.1484L60.7964 3.85432C61.5635 3.24506 61.7288 2.07751 61.1658 1.24723C60.6034 0.416948 59.5249 0.237898 58.7581 0.846852L52.0954 6.14093C51.3283 6.75019 51.1629 7.91774 51.7259 8.74802C52.0632 9.246 52.586 9.50991 53.116 9.50991C53.47 9.50991 53.8268 9.3921 54.1337 9.1484Z" fill="#025D31"/>
<path d="M62.8343 32.7958L55.5076 28.6559C54.6641 28.1797 53.6235 28.5334 53.1834 29.4464C52.7433 30.3594 53.07 31.4862 53.9134 31.9627L61.2401 36.1026C61.4948 36.2462 61.7672 36.3146 62.0356 36.3146C62.6569 36.3146 63.2569 35.9497 63.5641 35.3118C64.0045 34.3992 63.6775 33.2723 62.8343 32.7958Z" fill="#025D31"/>
</svg>
