<svg width="22" height="28" viewBox="0 0 22 28" fill="none" xmlns="http://www.w3.org/2000/svg">
<path d="M2.33222 0L0.018364 10.1192C-0.320385 11.6003 4.1405 12.2921 4.06761 13.7989L3.48915 25.758C3.4003 27.5966 5.803 27.5979 5.803 27.5979C5.803 27.5979 8.20571 27.5966 8.11686 25.758L7.5384 13.7989C7.46574 12.2947 11.5492 11.6264 11.5876 10.1192L9.27379 0H8.11686L8.69533 7.35943L6.95993 8.27936L6.38147 0H5.22454L4.64608 8.27936L2.91068 7.35943L3.48915 0H2.33222ZM22 0C20.2961 0 17.4551 1.20492 16.3193 3.01129C15.3727 4.36617 15.0584 7.39292 15.0584 9.19929V13.7989C15.0584 15.3043 17.5826 15.6388 18.5292 15.6388L17.3723 25.758C17.1629 27.5903 19.6861 27.5979 19.6861 27.5979C19.6861 27.5979 22 27.5979 22 25.758V0Z" fill="#F48707"/>
</svg>
