<svg width="28" height="28" viewBox="0 0 28 28" fill="none" xmlns="http://www.w3.org/2000/svg">
<g id="instagram">
<g id="Group 85">
<rect id="Rectangle 102" width="28" height="28" rx="3" fill="#375CA4"/>
</g>
<path id="Vector" fill-rule="evenodd" clipRule="evenodd" d="M13.6919 10.0074C12.2589 10.6034 9.3949 11.8371 5.09992 13.7083C4.40248 13.9856 4.03714 14.257 4.00388 14.5223C3.94767 14.9706 4.50915 15.1472 5.27374 15.3876C5.37774 15.4203 5.4855 15.4542 5.59598 15.4901C6.34822 15.7346 7.3601 16.0207 7.8862 16.0321C8.3633 16.0424 8.8959 15.8457 9.4839 15.4419C13.4968 12.7331 15.5683 11.3639 15.6983 11.3344C15.7901 11.3136 15.9172 11.2874 16.0034 11.3639C16.0895 11.4405 16.0811 11.5855 16.0719 11.6244C16.0163 11.8615 13.8123 13.9106 12.6717 14.971C12.3161 15.3015 12.0639 15.536 12.0124 15.5896C11.8969 15.7096 11.7791 15.823 11.666 15.9321C10.9672 16.6058 10.4431 17.111 11.695 17.936C12.2967 18.3325 12.7781 18.6603 13.2584 18.9874C13.7829 19.3446 14.306 19.7009 14.9829 20.1446C15.1554 20.2576 15.3201 20.375 15.4805 20.4894C16.0909 20.9246 16.6393 21.3155 17.3168 21.2532C17.7105 21.217 18.1172 20.8468 18.3237 19.7427C18.8118 17.1335 19.7712 11.4801 19.9929 9.1505C20.0123 8.9464 19.9879 8.6851 19.9683 8.5705C19.9486 8.4558 19.9076 8.2924 19.7586 8.1715C19.582 8.0283 19.3095 7.99805 19.1877 8.0001C18.6335 8.01 17.7834 8.30559 13.6919 10.0074Z" fill="white"/>
</g>
</svg>
