<svg width="35" height="30" viewBox="0 0 35 30" fill="none" xmlns="http://www.w3.org/2000/svg">
<path d="M17.0344 0.00868327C15.4024 0.236505 11.1951 0.59959 8.06721 1.39696C4.93933 2.42215 2.08344 4.1308 0.587497 4.81426C-0.500461 5.2699 0.179513 6.04591 0.587497 6.84328C4.12336 15.6144 9.01067 18.2272 12.2745 18.9106C12.5465 17.4298 13.116 15.7496 13.932 13.9271C13.66 13.9271 13.524 14.0339 13.252 14.0339C11.2121 14.6034 9.29966 16.7748 9.29966 16.7748C9.29966 16.7748 9.58015 13.2365 12.572 12.3252C13.252 12.0974 14.0595 12.1045 14.7394 12.2184L15.5469 10.8301C15.5469 10.7162 15.6744 10.7305 15.6744 10.6166C15.9464 9.9331 16.6519 8.44515 18.6918 8.44515C18.9638 8.44515 19.3548 8.43807 19.6268 8.55194C19.8987 8.77976 20.1622 8.78688 20.4342 9.0147C20.2982 6.96431 19.7882 4.5722 18.5643 1.61054C18.2923 0.927083 18.2583 -0.105228 17.0344 0.00868327ZM15.2919 6.06015C16.9239 6.06015 18.1393 7.09246 18.1393 7.09246C18.1393 7.09246 16.9239 8.23156 15.2919 8.23156C13.66 8.23156 12.4445 7.19925 12.4445 7.19925C12.4445 7.19925 13.796 6.17406 15.2919 6.06015ZM8.87467 8.19597C9.50365 8.15326 9.97963 8.23155 9.97963 8.23155C9.97963 8.23155 9.71614 9.81917 8.49219 10.6165C7.26824 11.4139 5.34731 11.1861 5.34731 11.1861C5.34731 11.1861 5.6108 9.59847 6.83475 8.8011C7.44673 8.40242 8.2457 8.23868 8.87467 8.19597ZM18.6918 10.1894C17.8644 10.166 17.8078 11.0508 17.3318 11.6489C9.98813 24.179 16.3629 28.3794 17.5868 28.9489C18.8108 29.4046 26.86 31.0064 34.2037 18.5903C34.7477 18.0207 35.5466 17.202 34.4587 16.6324C33.0987 15.8351 30.0898 13.7918 27.234 12.5388C24.3781 11.2858 20.7062 10.7162 19.0743 10.2606C18.9213 10.2179 18.81 10.1927 18.6918 10.1894ZM18.3093 16.3832C18.9043 16.3405 19.6863 16.3477 20.4342 16.6324C21.7942 17.202 22.4741 18.5903 22.4741 18.5903C22.4741 18.5903 20.8677 19.1669 19.3718 18.4835C18.0118 17.9139 17.3318 16.5256 17.3318 16.5256C17.3318 16.5256 17.7143 16.426 18.3093 16.3832ZM25.3215 19.231C25.9335 19.1883 26.724 19.1954 27.4039 19.4802C28.8999 20.0497 29.4439 21.5448 29.4439 21.5448C29.4439 21.5448 27.6589 22.0147 26.299 21.3312C24.8031 20.7617 24.2591 19.3734 24.2591 19.3734C24.2591 19.3734 24.7096 19.2737 25.3215 19.231ZM16.6519 20.5125C16.6519 20.5125 18.1393 23.0256 20.1792 23.823C22.2192 24.6204 25.4915 24.0366 25.4915 24.0366C25.4915 24.0366 22.0662 26.8843 19.0743 25.7452C16.2184 24.6061 16.6519 20.5125 16.6519 20.5125Z" fill="#B63E3E"/>
</svg>
