<svg width="24" height="24" viewBox="0 0 140 97" fill="none" xmlns="http://www.w3.org/2000/svg">
<path d="M23 24V24C46.3593 30.5489 71.0394 30.7728 94.5136 24.6487L97 24" stroke="#2554B0" stroke-width="5"/>
<path d="M105 48.5C105 73.7185 85.2124 94 61 94C36.7876 94 17 73.7185 17 48.5C17 23.2815 36.7876 3 61 3C85.2124 3 105 23.2815 105 48.5Z" stroke="#2554B0" stroke-width="6"/>
<rect x="58" y="3" width="6" height="91" fill="#2554B0"/>
<path d="M89.5 47C89.5 59.5752 86.2417 70.8429 81.1059 78.8889C75.9518 86.9637 69.1367 91.5 62 91.5C54.8633 91.5 48.0482 86.9637 42.8941 78.8889C37.7583 70.8429 34.5 59.5752 34.5 47C34.5 34.4248 37.7583 23.1571 42.8941 15.1111C48.0482 7.03626 54.8633 2.5 62 2.5C69.1367 2.5 75.9518 7.03626 81.1059 15.1111C86.2417 23.1571 89.5 34.4248 89.5 47Z" stroke="#2554B0" stroke-width="5"/>
<rect x="14" y="45" width="94" height="6" fill="#2554B0"/>
<path d="M14.5 63.1782V63.1782C9.44979 70.7785 16.4942 80.5853 25.3091 78.2259L49.3469 71.7921L57.9543 68.9404C69.5184 65.1092 80.6555 60.0928 91.188 53.9712L103.301 46.9313C103.766 46.6607 104.208 46.3517 104.622 46.0075L111.144 40.5834C117.655 35.1677 112.152 24.7036 104 27V27" stroke="#479DFF" stroke-width="5"/>
</svg>
