<svg width="19" height="19" viewBox="0 0 19 19" fill="none" xmlns="http://www.w3.org/2000/svg">
<path d="M16.224 2.64721C14.4322 0.941171 12.0494 0.000904103 9.51092 0C4.27996 0 0.0228012 4.04948 0.0209011 9.02747C0.0199511 10.6187 0.456973 12.1719 1.28731 13.5407L0 18.0821L4.9716 16.9637C6.35772 17.6833 7.91769 18.0622 9.50617 18.0631H9.50997C14.74 18.0631 18.9971 14.0127 19 9.0356C19.0019 6.62255 18.0157 4.35416 16.224 2.64721ZM14.1538 12.2542C13.9562 12.7813 12.9881 13.2894 12.553 13.3265C12.1179 13.3644 11.7103 13.5136 9.70758 12.7623C7.29731 11.8582 5.77534 9.50664 5.65753 9.35656C5.53878 9.20557 4.68943 8.13331 4.68943 7.02307C4.68943 5.91283 5.30221 5.36675 5.51977 5.14163C5.73734 4.91561 5.99385 4.85955 6.15251 4.85955C6.31021 4.85955 6.46887 4.85955 6.60663 4.86498C6.77574 4.87131 6.9629 4.87944 7.14056 5.25465C7.35147 5.70127 7.81224 6.81694 7.87114 6.92995C7.93004 7.04296 7.96995 7.17496 7.89109 7.32504C7.81224 7.47512 7.77234 7.56915 7.65453 7.70115C7.53578 7.83315 7.40562 7.99498 7.29921 8.09624C7.18046 8.20835 7.05695 8.33131 7.19471 8.55643C7.33342 8.78245 7.80844 9.52111 8.51337 10.1187C9.41972 10.8872 10.1826 11.125 10.4201 11.2389C10.6576 11.3519 10.7954 11.3329 10.9341 11.1819C11.0728 11.0319 11.5269 10.5238 11.6846 10.2977C11.8423 10.0717 12.001 10.1097 12.2186 10.1847C12.4361 10.2598 13.6018 10.8058 13.8384 10.9188C14.0759 11.0319 14.2336 11.0879 14.2925 11.1819C14.3514 11.2751 14.3514 11.7271 14.1538 12.2542Z" fill="#0EC557"/>
</svg>
